{"accessors" : [{"bufferView" : 0, "byteOffset" : 0, "componentType" : 5123, "count" : 447, "type" : "SCALAR", "max" : [379], "min" : [0]}, {"bufferView" : 1, "byteOffset" : 0, "componentType" : 5126, "count" : 380, "type" : "VEC3", "max" : [250, 249.9998779296875, 43.241458892822266], "min" : [-250, -250.0000457763672, -4.394670009613037], "name" : "POSITION"}, {"bufferView" : 1, "byteOffset" : 12, "componentType" : 5126, "count" : 380, "type" : "VEC3", "max" : [1.0000044107437134, 1.0000044107437134, -0], "min" : [-1.0000044107437134, -1.0000044107437134, -1.0000044107437134], "name" : "NORMAL"}, {"bufferView" : 1, "byteOffset" : 24, "componentType" : 5126, "count" : 380, "type" : "VEC2", "max" : [0.9905328750610352, 0.6875295639038086], "min" : [0.8944315314292908, 0.0756639838218689], "name" : "TEXCOORD_0"}, {"bufferView" : 0, "byteOffset" : 896, "componentType" : 5123, "count" : 1578, "type" : "SCALAR", "max" : [1352], "min" : [0]}, {"bufferView" : 2, "byteOffset" : 0, "componentType" : 5126, "count" : 1353, "type" : "VEC3", "max" : [45.670475006103516, 62.9734992980957, 7.1512370109558105], "min" : [-45.67015838623047, -67.73757934570312, -158.3417205810547], "name" : "POSITION"}, {"bufferView" : 2, "byteOffset" : 12, "componentType" : 5126, "count" : 1353, "type" : "VEC3", "max" : [1.0000014305114746, 1.0000042915344238, 1.0000044107437134], "min" : [-1.000001311302185, -0.9999923706054688, -1.0000044107437134], "name" : "NORMAL"}, {"bufferView" : 2, "byteOffset" : 24, "componentType" : 5126, "count" : 1353, "type" : "VEC2", "max" : [0.3878413736820221, 0.9330492615699768], "min" : [0.027696996927261353, 0.2057938575744629], "name" : "TEXCOORD_0"}, {"bufferView" : 0, "byteOffset" : 4052, "componentType" : 5123, "count" : 468, "type" : "SCALAR", "max" : [389], "min" : [0]}, {"bufferView" : 3, "byteOffset" : 0, "componentType" : 5126, "count" : 390, "type" : "VEC3", "max" : [24.80290985107422, 24.35744857788086, -0], "min" : [-24.802902221679688, -24.357444763183594, -114.84580993652344], "name" : "POSITION"}, {"bufferView" : 3, "byteOffset" : 12, "componentType" : 5126, "count" : 390, "type" : "VEC3", "max" : [1.0000044107437134, 1.0000044107437134, 1.0000044107437134], "min" : [-1.0000044107437134, -1.0000044107437134, -1.0000044107437134], "name" : "NORMAL"}, {"bufferView" : 3, "byteOffset" : 24, "componentType" : 5126, "count" : 390, "type" : "VEC2", "max" : [0.029328806325793266, 0.7664245367050171], "min" : [0.02784668654203415, 0.3442424535751343], "name" : "TEXCOORD_0"}, {"bufferView" : 0, "byteOffset" : 4988, "componentType" : 5123, "count" : 102, "type" : "SCALAR", "max" : [84], "min" : [0]}, {"bufferView" : 4, "byteOffset" : 0, "componentType" : 5126, "count" : 85, "type" : "VEC3", "max" : [8.727134704589844, 34.44712829589844, -2.4851574380591046E-06], "min" : [-8.727134704589844, -53.94252014160156, -36.07271957397461], "name" : "POSITION"}, {"bufferView" : 4, "byteOffset" : 12, "componentType" : 5126, "count" : 85, "type" : "VEC3", "max" : [1.0000044107437134, 1.0000044107437134, 0.9997918009757996], "min" : [-1.0000044107437134, -1.0000044107437134, -1.0000044107437134], "name" : "NORMAL"}, {"bufferView" : 4, "byteOffset" : 24, "componentType" : 5126, "count" : 85, "type" : "VEC2", "max" : [0.12282934784889221, 0.8425310254096985], "min" : [0.02784668654203415, 0.3442424535751343], "name" : "TEXCOORD_0"}, {"bufferView" : 0, "byteOffset" : 5192, "componentType" : 5123, "count" : 288, "type" : "SCALAR", "max" : [244], "min" : [0]}, {"bufferView" : 5, "byteOffset" : 0, "componentType" : 5126, "count" : 245, "type" : "VEC3", "max" : [42.50369644165039, 4.907395362854004, 44.57822799682617], "min" : [-42.5036506652832, -7.364544868469238, -44.57823181152344], "name" : "POSITION"}, {"bufferView" : 5, "byteOffset" : 12, "componentType" : 5126, "count" : 245, "type" : "VEC3", "max" : [0.9957472681999207, 1.0000044107437134, 0.9866014122962952], "min" : [-0.995747447013855, -1.0000044107437134, -0.9866018295288086], "name" : "NORMAL"}, {"bufferView" : 5, "byteOffset" : 24, "componentType" : 5126, "count" : 245, "type" : "VEC2", "max" : [0.12316455692052841, 0.8042107820510864], "min" : [0.02943776175379753, 0.7229501008987427], "name" : "TEXCOORD_0"}, {"bufferView" : 0, "byteOffset" : 5768, "componentType" : 5123, "count" : 1470, "type" : "SCALAR", "max" : [1269], "min" : [0]}, {"bufferView" : 6, "byteOffset" : 0, "componentType" : 5126, "count" : 1270, "type" : "VEC3", "max" : [50.12766647338867, 56.63249969482422, -0], "min" : [-47.798919677734375, -57.88756561279297, -90.88091278076172], "name" : "POSITION"}, {"bufferView" : 6, "byteOffset" : 12, "componentType" : 5126, "count" : 1270, "type" : "VEC3", "max" : [0.9975942373275757, 0.9998908042907715, 0.999967634677887], "min" : [-0.9991904497146606, -0.99882972240448, -1.0000044107437134], "name" : "NORMAL"}, {"bufferView" : 6, "byteOffset" : 24, "componentType" : 5126, "count" : 1270, "type" : "VEC2", "max" : [0.06524582207202911, 0.8590483665466309], "min" : [0.06507567316293716, 0.7739518880844116], "name" : "TEXCOORD_0"}, {"bufferView" : 0, "byteOffset" : 8708, "componentType" : 5123, "count" : 360, "type" : "SCALAR", "max" : [319], "min" : [0]}, {"bufferView" : 7, "byteOffset" : 0, "componentType" : 5126, "count" : 320, "type" : "VEC3", "max" : [20.490646362304688, 16.767541885375977, -0.07387660443782806], "min" : [-18.77759552001953, -21.932828903198242, -77.7262954711914], "name" : "POSITION"}, {"bufferView" : 7, "byteOffset" : 12, "componentType" : 5126, "count" : 320, "type" : "VEC3", "max" : [0.8122560977935791, 0.9563597440719604, 0.9995818138122559], "min" : [-0.9999660849571228, -0.9529805183410645, -0.5961897969245911], "name" : "NORMAL"}, {"bufferView" : 7, "byteOffset" : 24, "componentType" : 5126, "count" : 320, "type" : "VEC2", "max" : [0.31165438890457153, 0.8984575271606445], "min" : [0.31165438890457153, 0.8984575271606445], "name" : "TEXCOORD_0"}, {"bufferView" : 0, "byteOffset" : 9428, "componentType" : 5123, "count" : 414, "type" : "SCALAR", "max" : [359], "min" : [0]}, {"bufferView" : 8, "byteOffset" : 0, "componentType" : 5126, "count" : 360, "type" : "VEC3", "max" : [250.21514892578125, 250.0091552734375, 548.2708740234375], "min" : [-250, -250, 43.14716339111328], "name" : "POSITION"}, {"bufferView" : 8, "byteOffset" : 12, "componentType" : 5126, "count" : 360, "type" : "VEC3", "max" : [0.996724009513855, 0.9844310283660889, 0.9779068231582642], "min" : [-0.9852225184440613, -0.9984560012817383, -0.41774916648864746], "name" : "NORMAL"}, {"bufferView" : 8, "byteOffset" : 24, "componentType" : 5126, "count" : 360, "type" : "VEC2", "max" : [0.991740345954895, 0.9249242544174194], "min" : [0.988692045211792, 0.63628751039505], "name" : "TEXCOORD_0"}], "asset" : {"generator" : "Aspose.3D 22.1", "version" : "2.0"}, "buffers" : [{"uri" : "data:application/octet-stream;base64,", "byteLength" : 174356}], "bufferViews" : [{"buffer" : 0, "byteOffset" : 0, "byteLength" : 10256, "target" : 34963}, {"buffer" : 0, "byteOffset" : 10260, "byteLength" : 14304, "byteStride" : 32, "target" : 34962}, {"buffer" : 0, "byteOffset" : 24568, "byteLength" : 50496, "byteStride" : 32, "target" : 34962}, {"buffer" : 0, "byteOffset" : 75068, "byteLength" : 14976, "byteStride" : 32, "target" : 34962}, {"buffer" : 0, "byteOffset" : 90048, "byteLength" : 3264, "byteStride" : 32, "target" : 34962}, {"buffer" : 0, "byteOffset" : 93316, "byteLength" : 9216, "byteStride" : 32, "target" : 34962}, {"buffer" : 0, "byteOffset" : 102536, "byteLength" : 47040, "byteStride" : 32, "target" : 34962}, {"buffer" : 0, "byteOffset" : 149580, "byteLength" : 11520, "byteStride" : 32, "target" : 34962}, {"buffer" : 0, "byteOffset" : 161104, "byteLength" : 13248, "byteStride" : 32, "target" : 34962}], "images" : [{"uri" : "data:image/png;base64,"}], "materials" : [{"name" : "PolygonMinis_Fantasy_01", "pbrMetallicRoughness" : {"baseColorFactor" : [1, 1, 1, 1], "baseColorTexture" : {"index" : 0, "texCoord" : 0}, "metallicFactor" : 0, "roughnessFactor" : 0.5527864098548889}, "emissiveFactor" : [0, 0, 0], "alphaMode" : "OPAQUE", "doubleSided" : true}, {"name" : "PolygonMinis_Fantasy_01", "pbrMetallicRoughness" : {"baseColorFactor" : [1, 1, 1, 1], "baseColorTexture" : {"index" : 0, "texCoord" : 0}, "metallicFactor" : 0, "roughnessFactor" : 0.5527864098548889}, "emissiveFactor" : [0, 0, 0], "alphaMode" : "OPAQUE", "doubleSided" : true}, {"name" : "PolygonMinis_Fantasy_01", "pbrMetallicRoughness" : {"baseColorFactor" : [1, 1, 1, 1], "baseColorTexture" : {"index" : 0, "texCoord" : 0}, "metallicFactor" : 0, "roughnessFactor" : 0.5527864098548889}, "emissiveFactor" : [0, 0, 0], "alphaMode" : "OPAQUE", "doubleSided" : true}, {"name" : "PolygonMinis_Fantasy_01", "pbrMetallicRoughness" : {"baseColorFactor" : [1, 1, 1, 1], "baseColorTexture" : {"index" : 0, "texCoord" : 0}, "metallicFactor" : 0, "roughnessFactor" : 0.5527864098548889}, "emissiveFactor" : [0, 0, 0], "alphaMode" : "OPAQUE", "doubleSided" : true}, {"name" : "PolygonMinis_Fantasy_01", "pbrMetallicRoughness" : {"baseColorFactor" : [1, 1, 1, 1], "baseColorTexture" : {"index" : 0, "texCoord" : 0}, "metallicFactor" : 0, "roughnessFactor" : 0.5527864098548889}, "emissiveFactor" : [0, 0, 0], "alphaMode" : "OPAQUE", "doubleSided" : true}, {"name" : "PolygonMinis_Fantasy_01", "pbrMetallicRoughness" : {"baseColorFactor" : [1, 1, 1, 1], "baseColorTexture" : {"index" : 0, "texCoord" : 0}, "metallicFactor" : 0, "roughnessFactor" : 0.5527864098548889}, "emissiveFactor" : [0, 0, 0], "alphaMode" : "OPAQUE", "doubleSided" : true}, {"name" : "PolygonMinis_Fantasy_01", "pbrMetallicRoughness" : {"baseColorFactor" : [1, 1, 1, 1], "baseColorTexture" : {"index" : 0, "texCoord" : 0}, "metallicFactor" : 0, "roughnessFactor" : 0.5527864098548889}, "emissiveFactor" : [0, 0, 0], "alphaMode" : "OPAQUE", "doubleSided" : true}, {"name" : "PolygonMinis_Fantasy_01", "pbrMetallicRoughness" : {"baseColorFactor" : [1, 1, 1, 1], "baseColorTexture" : {"index" : 0, "texCoord" : 0}, "metallicFactor" : 0, "roughnessFactor" : 0.5527864098548889}, "emissiveFactor" : [0, 0, 0], "alphaMode" : "OPAQUE", "doubleSided" : true}], "meshes" : [{"primitives" : [{"attributes" : {"POSITION" : 1, "NORMAL" : 2, "TEXCOORD_0" : 3}, "indices" : 0, "material" : 0, "mode" : 4}]}, {"primitives" : [{"attributes" : {"POSITION" : 5, "NORMAL" : 6, "TEXCOORD_0" : 7}, "indices" : 4, "material" : 1, "mode" : 4}]}, {"primitives" : [{"attributes" : {"POSITION" : 9, "NORMAL" : 10, "TEXCOORD_0" : 11}, "indices" : 8, "material" : 2, "mode" : 4}]}, {"primitives" : [{"attributes" : {"POSITION" : 13, "NORMAL" : 14, "TEXCOORD_0" : 15}, "indices" : 12, "material" : 3, "mode" : 4}]}, {"primitives" : [{"attributes" : {"POSITION" : 17, "NORMAL" : 18, "TEXCOORD_0" : 19}, "indices" : 16, "material" : 4, "mode" : 4}]}, {"primitives" : [{"attributes" : {"POSITION" : 21, "NORMAL" : 22, "TEXCOORD_0" : 23}, "indices" : 20, "material" : 5, "mode" : 4}]}, {"primitives" : [{"attributes" : {"POSITION" : 25, "NORMAL" : 26, "TEXCOORD_0" : 27}, "indices" : 24, "material" : 6, "mode" : 4}]}, {"primitives" : [{"attributes" : {"POSITION" : 29, "NORMAL" : 30, "TEXCOORD_0" : 31}, "indices" : 28, "material" : 7, "mode" : 4}]}], "nodes" : [{"matrix" : [1, 0, 0, 0, 0, 1, 0, 0, 0, 0, 1, 0, 136, 110.89999389648438, 0, 1], "mesh" : 1, "name" : "SM_Bld_Western_Church_01"}, {"matrix" : [1, 0, 0, 0, 0, 1, 0, 0, 0, 0, 1, 0, -8.036846702452749E-05, 29.983827590942383, -25.686254501342773, 1], "mesh" : 4, "name" : "SM_Bld_Western_Windmill_Blades_01"}, {"children" : [1], "matrix" : [1, 0, 0, 0, 0, 1, 0, 0, 0, 0, 1, 0, 0, 0, -114.8458023071289, 1], "mesh" : 3, "name" : "SM_Bld_Western_Windmill_Top_01"}, {"children" : [2], "matrix" : [1, 0, 0, 0, 0, 1, 0, 0, 0, 0, 1, 0, 95, -170, 8, 1], "mesh" : 2, "name" : "SM_Bld_Western_Windmill_01"}, {"matrix" : [1, 0, 0, 0, 0, 1, 0, 0, 0, 0, 1, 0, -84, -72, 33, 1], "mesh" : 5, "name" : "SM_Env_Dungeon_Bones_01"}, {"matrix" : [1, 0, 0, 0, 0, 1, 0, 0, 0, 0, 1, 0, -41, 109.4000015258789, 2.8000001907348633, 1], "mesh" : 6, "name" : "SM_Env_Western_Cactus_02"}, {"matrix" : [1, 0, 0, 0, 0, 1, 0, 0, 0, 0, 1, 0, 0.457763671875, 0.772857666015625, -8.59527587890625, 1], "mesh" : 7, "name" : "SM_Tile_Cube_FloatingIsland_01"}, {"children" : [0, 3, 4, 5, 6], "matrix" : [0.009999999776482582, 0, 0, 0, 0, -1.3435885348189617E-09, 0.009999999434197101, 0, 0, -0.009999999434197101, -1.3435885348189617E-09, 0, 0, 0, 0, 1], "mesh" : 0, "name" : "SM_Tile_Cube_Flat_03"}], "samplers" : [{"magFilter" : 9729, "minFilter" : 9987, "wrapS" : 10497, "wrapT" : 10497}], "scene" : 0, "scenes" : [{"nodes" : [7]}], "textures" : [{"sampler" : 0, "source" : 0}]}