{"accessors" : [{"bufferView" : 0, "byteOffset" : 0, "componentType" : 5123, "count" : 792, "type" : "SCALAR", "max" : [732], "min" : [0]}, {"bufferView" : 1, "byteOffset" : 0, "componentType" : 5126, "count" : 733, "type" : "VEC3", "max" : [250, 250, 43.241458892822266], "min" : [-250, -250, -59.80326461791992], "name" : "POSITION"}, {"bufferView" : 1, "byteOffset" : 12, "componentType" : 5126, "count" : 733, "type" : "VEC3", "max" : [1.0000044107437134, 1.0000044107437134, 0.7843264937400818], "min" : [-1.0000044107437134, -1.0000044107437134, -0.9999991655349731], "name" : "NORMAL"}, {"bufferView" : 1, "byteOffset" : 24, "componentType" : 5126, "count" : 733, "type" : "VEC2", "max" : [0.9919539093971252, 0.6786755323410034], "min" : [0.8944315314292908, 0.0756639838218689], "name" : "TEXCOORD_0"}, {"bufferView" : 0, "byteOffset" : 1584, "componentType" : 5123, "count" : 432, "type" : "SCALAR", "max" : [395], "min" : [0]}, {"bufferView" : 2, "byteOffset" : 0, "componentType" : 5126, "count" : 396, "type" : "VEC3", "max" : [41.7172737121582, 50.529258728027344, 5.3858442306518555], "min" : [-41.71702575683594, -50.529296875, -88.39445495605469], "name" : "POSITION"}, {"bufferView" : 2, "byteOffset" : 12, "componentType" : 5126, "count" : 396, "type" : "VEC3", "max" : [0.9936587810516357, 0.9855808615684509, 1.0000044107437134], "min" : [-0.9856435656547546, -0.9059439301490784, -0.9606245160102844], "name" : "NORMAL"}, {"bufferView" : 2, "byteOffset" : 24, "componentType" : 5126, "count" : 396, "type" : "VEC2", "max" : [0.896140992641449, 0.7138012647628784], "min" : [0.896140992641449, 0.7138012647628784], "name" : "TEXCOORD_0"}, {"bufferView" : 0, "byteOffset" : 2448, "componentType" : 5123, "count" : 216, "type" : "SCALAR", "max" : [197], "min" : [0]}, {"bufferView" : 3, "byteOffset" : 0, "componentType" : 5126, "count" : 198, "type" : "VEC3", "max" : [26.040145874023438, 20.59796905517578, 3.287525177001953], "min" : [-26.040145874023438, -20.59796905517578, -13.967053413391113], "name" : "POSITION"}, {"bufferView" : 3, "byteOffset" : 12, "componentType" : 5126, "count" : 198, "type" : "VEC3", "max" : [0.8601380586624146, 0.9507695436477661, 0.9845387935638428], "min" : [-0.8903548717498779, -0.9543269872665405, -1.0000042915344238], "name" : "NORMAL"}, {"bufferView" : 3, "byteOffset" : 24, "componentType" : 5126, "count" : 198, "type" : "VEC2", "max" : [0.896140992641449, 0.7138012647628784], "min" : [0.896140992641449, 0.7138012647628784], "name" : "TEXCOORD_0"}, {"bufferView" : 0, "byteOffset" : 2880, "componentType" : 5123, "count" : 180, "type" : "SCALAR", "max" : [154], "min" : [0]}, {"bufferView" : 4, "byteOffset" : 0, "componentType" : 5126, "count" : 155, "type" : "VEC3", "max" : [27.49040412902832, 23.807491302490234, 25.651390075683594], "min" : [-27.49040412902832, -23.80742645263672, -86.09017181396484], "name" : "POSITION"}, {"bufferView" : 4, "byteOffset" : 12, "componentType" : 5126, "count" : 155, "type" : "VEC3", "max" : [0.8660279512405396, 1.0000044107437134, 1.0000044107437134], "min" : [-0.8660278916358948, -1.0000044107437134, -0.4998323619365692], "name" : "NORMAL"}, {"bufferView" : 4, "byteOffset" : 24, "componentType" : 5126, "count" : 155, "type" : "VEC2", "max" : [0.2588571310043335, 0.8941438794136047], "min" : [0.008884861133992672, 0.8451566696166992], "name" : "TEXCOORD_0"}, {"bufferView" : 0, "byteOffset" : 3240, "componentType" : 5123, "count" : 540, "type" : "SCALAR", "max" : [467], "min" : [0]}, {"bufferView" : 5, "byteOffset" : 0, "componentType" : 5126, "count" : 468, "type" : "VEC3", "max" : [51.374053955078125, 50.64218521118164, 22.172426223754883], "min" : [-51.373924255371094, -50.64213943481445, -86.35436248779297], "name" : "POSITION"}, {"bufferView" : 5, "byteOffset" : 12, "componentType" : 5126, "count" : 468, "type" : "VEC3", "max" : [0.9936206340789795, 0.9978190660476685, 0.9942038059234619], "min" : [-0.9936206936836243, -0.9978190660476685, -0.6123173832893372], "name" : "NORMAL"}, {"bufferView" : 5, "byteOffset" : 24, "componentType" : 5126, "count" : 468, "type" : "VEC2", "max" : [0.2588571310043335, 0.8941438794136047], "min" : [0.008884861133992672, 0.8451566696166992], "name" : "TEXCOORD_0"}, {"bufferView" : 0, "byteOffset" : 4320, "componentType" : 5123, "count" : 51, "type" : "SCALAR", "max" : [44], "min" : [0]}, {"bufferView" : 6, "byteOffset" : 0, "componentType" : 5126, "count" : 45, "type" : "VEC3", "max" : [20.858245849609375, 20.49909019470215, 21.602651596069336], "min" : [-20.858184814453125, -20.49907875061035, -98.03811645507812], "name" : "POSITION"}, {"bufferView" : 6, "byteOffset" : 12, "componentType" : 5126, "count" : 45, "type" : "VEC3", "max" : [0.9641798138618469, 0.9605581164360046, 0.909420371055603], "min" : [-0.9553331136703491, -1.0000044107437134, -0.2955460548400879], "name" : "NORMAL"}, {"bufferView" : 6, "byteOffset" : 24, "componentType" : 5126, "count" : 45, "type" : "VEC2", "max" : [0.2568695843219757, 0.8497301340103149], "min" : [0.025924645364284515, 0.8359794020652771], "name" : "TEXCOORD_0"}, {"bufferView" : 0, "byteOffset" : 4424, "componentType" : 5123, "count" : 330, "type" : "SCALAR", "max" : [317], "min" : [0]}, {"bufferView" : 7, "byteOffset" : 0, "componentType" : 5126, "count" : 318, "type" : "VEC3", "max" : [31.390380859375, 15.914283752441406, 21.2760009765625], "min" : [-26.244613647460938, -17.555618286132812, -72.56304168701172], "name" : "POSITION"}, {"bufferView" : 7, "byteOffset" : 12, "componentType" : 5126, "count" : 318, "type" : "VEC3", "max" : [0.9678751230239868, 0.9998403787612915, 1.0000044107437134], "min" : [-0.9717302322387695, -0.999840259552002, -0.9517588019371033], "name" : "NORMAL"}, {"bufferView" : 7, "byteOffset" : 24, "componentType" : 5126, "count" : 318, "type" : "VEC2", "max" : [0.5738431215286255, 0.8996851444244385], "min" : [0.12282151728868484, 0.6393424272537231], "name" : "TEXCOORD_0"}, {"bufferView" : 0, "byteOffset" : 5084, "componentType" : 5123, "count" : 414, "type" : "SCALAR", "max" : [359], "min" : [0]}, {"bufferView" : 8, "byteOffset" : 0, "componentType" : 5126, "count" : 360, "type" : "VEC3", "max" : [250.21514892578125, 250.0091552734375, 548.2708740234375], "min" : [-250, -250, 43.14716339111328], "name" : "POSITION"}, {"bufferView" : 8, "byteOffset" : 12, "componentType" : 5126, "count" : 360, "type" : "VEC3", "max" : [0.996724009513855, 0.9844310283660889, 0.9779068231582642], "min" : [-0.9852225184440613, -0.9984560012817383, -0.41774916648864746], "name" : "NORMAL"}, {"bufferView" : 8, "byteOffset" : 24, "componentType" : 5126, "count" : 360, "type" : "VEC2", "max" : [0.991740345954895, 0.9249242544174194], "min" : [0.988692045211792, 0.63628751039505], "name" : "TEXCOORD_0"}], "asset" : {"generator" : "Aspose.3D 22.1", "version" : "2.0"}, "buffers" : [{"uri" : "data:application/octet-stream;base64,", "byteLength" : 100508}], "bufferViews" : [{"buffer" : 0, "byteOffset" : 0, "byteLength" : 5912, "target" : 34963}, {"buffer" : 0, "byteOffset" : 5916, "byteLength" : 25344, "byteStride" : 32, "target" : 34962}, {"buffer" : 0, "byteOffset" : 31264, "byteLength" : 13824, "byteStride" : 32, "target" : 34962}, {"buffer" : 0, "byteOffset" : 45092, "byteLength" : 6912, "byteStride" : 32, "target" : 34962}, {"buffer" : 0, "byteOffset" : 52008, "byteLength" : 5760, "byteStride" : 32, "target" : 34962}, {"buffer" : 0, "byteOffset" : 57772, "byteLength" : 17280, "byteStride" : 32, "target" : 34962}, {"buffer" : 0, "byteOffset" : 75056, "byteLength" : 1632, "byteStride" : 32, "target" : 34962}, {"buffer" : 0, "byteOffset" : 76692, "byteLength" : 10560, "byteStride" : 32, "target" : 34962}, {"buffer" : 0, "byteOffset" : 87256, "byteLength" : 13248, "byteStride" : 32, "target" : 34962}], "images" : [{"uri" : "data:image/png;base64,"}], "materials" : [{"name" : "PolygonMinis_Fantasy_01.002", "pbrMetallicRoughness" : {"baseColorFactor" : [1, 1, 1, 1], "baseColorTexture" : {"index" : 0, "texCoord" : 0}, "metallicFactor" : 0, "roughnessFactor" : 0.5527864098548889}, "emissiveFactor" : [0, 0, 0], "alphaMode" : "OPAQUE", "doubleSided" : true}, {"name" : "PolygonMinis_Fantasy_01.002", "pbrMetallicRoughness" : {"baseColorFactor" : [1, 1, 1, 1], "baseColorTexture" : {"index" : 0, "texCoord" : 0}, "metallicFactor" : 0, "roughnessFactor" : 0.5527864098548889}, "emissiveFactor" : [0, 0, 0], "alphaMode" : "OPAQUE", "doubleSided" : true}, {"name" : "PolygonMinis_Fantasy_01.002", "pbrMetallicRoughness" : {"baseColorFactor" : [1, 1, 1, 1], "baseColorTexture" : {"index" : 0, "texCoord" : 0}, "metallicFactor" : 0, "roughnessFactor" : 0.5527864098548889}, "emissiveFactor" : [0, 0, 0], "alphaMode" : "OPAQUE", "doubleSided" : true}, {"name" : "PolygonMinis_Fantasy_01.002", "pbrMetallicRoughness" : {"baseColorFactor" : [1, 1, 1, 1], "baseColorTexture" : {"index" : 0, "texCoord" : 0}, "metallicFactor" : 0, "roughnessFactor" : 0.5527864098548889}, "emissiveFactor" : [0, 0, 0], "alphaMode" : "OPAQUE", "doubleSided" : true}, {"name" : "PolygonMinis_Fantasy_01.002", "pbrMetallicRoughness" : {"baseColorFactor" : [1, 1, 1, 1], "baseColorTexture" : {"index" : 0, "texCoord" : 0}, "metallicFactor" : 0, "roughnessFactor" : 0.5527864098548889}, "emissiveFactor" : [0, 0, 0], "alphaMode" : "OPAQUE", "doubleSided" : true}, {"name" : "PolygonMinis_Fantasy_01.002", "pbrMetallicRoughness" : {"baseColorFactor" : [1, 1, 1, 1], "baseColorTexture" : {"index" : 0, "texCoord" : 0}, "metallicFactor" : 0, "roughnessFactor" : 0.5527864098548889}, "emissiveFactor" : [0, 0, 0], "alphaMode" : "OPAQUE", "doubleSided" : true}, {"name" : "PolygonMinis_Fantasy_01.002", "pbrMetallicRoughness" : {"baseColorFactor" : [1, 1, 1, 1], "baseColorTexture" : {"index" : 0, "texCoord" : 0}, "metallicFactor" : 0, "roughnessFactor" : 0.5527864098548889}, "emissiveFactor" : [0, 0, 0], "alphaMode" : "OPAQUE", "doubleSided" : true}, {"name" : "PolygonMinis_Fantasy_01.002", "pbrMetallicRoughness" : {"baseColorFactor" : [1, 1, 1, 1], "baseColorTexture" : {"index" : 0, "texCoord" : 0}, "metallicFactor" : 0, "roughnessFactor" : 0.5527864098548889}, "emissiveFactor" : [0, 0, 0], "alphaMode" : "OPAQUE", "doubleSided" : true}], "meshes" : [{"primitives" : [{"attributes" : {"POSITION" : 1, "NORMAL" : 2, "TEXCOORD_0" : 3}, "indices" : 0, "material" : 0, "mode" : 4}]}, {"primitives" : [{"attributes" : {"POSITION" : 5, "NORMAL" : 6, "TEXCOORD_0" : 7}, "indices" : 4, "material" : 1, "mode" : 4}]}, {"primitives" : [{"attributes" : {"POSITION" : 9, "NORMAL" : 10, "TEXCOORD_0" : 11}, "indices" : 8, "material" : 2, "mode" : 4}]}, {"primitives" : [{"attributes" : {"POSITION" : 13, "NORMAL" : 14, "TEXCOORD_0" : 15}, "indices" : 12, "material" : 3, "mode" : 4}]}, {"primitives" : [{"attributes" : {"POSITION" : 17, "NORMAL" : 18, "TEXCOORD_0" : 19}, "indices" : 16, "material" : 4, "mode" : 4}]}, {"primitives" : [{"attributes" : {"POSITION" : 21, "NORMAL" : 22, "TEXCOORD_0" : 23}, "indices" : 20, "material" : 5, "mode" : 4}]}, {"primitives" : [{"attributes" : {"POSITION" : 25, "NORMAL" : 26, "TEXCOORD_0" : 27}, "indices" : 24, "material" : 6, "mode" : 4}]}, {"primitives" : [{"attributes" : {"POSITION" : 29, "NORMAL" : 30, "TEXCOORD_0" : 31}, "indices" : 28, "material" : 7, "mode" : 4}]}], "nodes" : [{"matrix" : [0.9493555987606669, -0.037045680555920724, -0.3120121317852372, 0, -9.460928040994077E-09, 0.9930250661697329, -0.11790342975238113, 0, 0.3142036804829304, 0.111932284438063, 0.9427339059074575, 0, -105.65948486328125, -115.65399169921875, -19.374847412109375, 1], "mesh" : 1, "name" : "SM_Env_Generic_Rock_05"}, {"matrix" : [1, 0, 0, 0, 0, 1, 0, 0, 0, 0, 1, 0, -105.99999237060547, 0, -64, 1], "mesh" : 2, "name" : "SM_Env_Generic_Rock_08"}, {"matrix" : [1, 0, 0, 0, 0, 1, 0, 0, 0, 0, 1, 0, 123, 0, -56.69999694824219, 1], "mesh" : 3, "name" : "SM_Env_Generic_Tree_01"}, {"matrix" : [1, 0, 0, 0, 0, 1, 0, 0, 0, 0, 1, 0, 0, 0, -75, 1], "mesh" : 4, "name" : "SM_Env_Generic_Tree_03"}, {"matrix" : [1, 0, 0, 0, 0, 1, 0, 0, 0, 0, 1, 0, 0, 0, -77.80000305175781, 1], "mesh" : 5, "name" : "SM_Env_Generic_Tree_07"}, {"matrix" : [1, 0, 0, 0, 0, 0.9986570625830662, 0.051808029067387906, 0, 0, -0.051808029067387906, 0.9986570625830662, 0, -100.59967041015625, 83.01773071289062, -77.85186767578125, 1], "mesh" : 5, "name" : "SM_Env_Generic_Tree_07__1_"}, {"matrix" : [1, 0, 0, 0, 0, 1, 0, 0, 0, 0, 1, 0, 0, -209.8000030517578, -18.799999237060547, 1], "mesh" : 6, "name" : "SM_Env_Generic_Tree_Birch_01"}, {"matrix" : [1, 0, 0, 0, 0, 1, 0, 0, 0, 0, 1, 0, 1.1810302734375, 3.839111328125, -10.736846923828125, 1], "mesh" : 7, "name" : "SM_Tile_Cube_FloatingIsland_01"}, {"children" : [0, 1, 2, 3, 4, 5, 6, 7], "matrix" : [0.009999999776482582, 0, 0, 0, 0, -1.3435885348189617E-09, 0.009999999434197101, 0, 0, -0.009999999434197101, -1.3435885348189617E-09, 0, 0, 0, 0, 1], "mesh" : 0, "name" : "SM_Tile_Cube_Hill_02"}], "samplers" : [{"magFilter" : 9729, "minFilter" : 9987, "wrapS" : 10497, "wrapT" : 10497}], "scene" : 0, "scenes" : [{"nodes" : [8]}], "textures" : [{"sampler" : 0, "source" : 0}]}