{"accessors" : [{"bufferView" : 0, "byteOffset" : 0, "componentType" : 5123, "count" : 792, "type" : "SCALAR", "max" : [732], "min" : [0]}, {"bufferView" : 1, "byteOffset" : 0, "componentType" : 5126, "count" : 733, "type" : "VEC3", "max" : [250, 250, 43.241458892822266], "min" : [-250, -250, -59.80326461791992], "name" : "POSITION"}, {"bufferView" : 1, "byteOffset" : 12, "componentType" : 5126, "count" : 733, "type" : "VEC3", "max" : [1.0000044107437134, 1.0000044107437134, 0.7843264937400818], "min" : [-1.0000044107437134, -1.0000044107437134, -0.9999991655349731], "name" : "NORMAL"}, {"bufferView" : 1, "byteOffset" : 24, "componentType" : 5126, "count" : 733, "type" : "VEC2", "max" : [0.9919539093971252, 0.6786755323410034], "min" : [0.8944315314292908, 0.0756639838218689], "name" : "TEXCOORD_0"}, {"bufferView" : 0, "byteOffset" : 1584, "componentType" : 5123, "count" : 1539, "type" : "SCALAR", "max" : [1318], "min" : [0]}, {"bufferView" : 2, "byteOffset" : 0, "componentType" : 5126, "count" : 1319, "type" : "VEC3", "max" : [43.84613037109375, 75.37065887451172, 0.001130980672314763], "min" : [-43.84613037109375, -75.37065887451172, -184.33506774902344], "name" : "POSITION"}, {"bufferView" : 2, "byteOffset" : 12, "componentType" : 5126, "count" : 1319, "type" : "VEC3", "max" : [1.0000044107437134, 1.0000044107437134, 1.0000044107437134], "min" : [-1.0000044107437134, -1.0000044107437134, -1.0000044107437134], "name" : "NORMAL"}, {"bufferView" : 2, "byteOffset" : 24, "componentType" : 5126, "count" : 1319, "type" : "VEC2", "max" : [0.18163250386714935, 0.9372595548629761], "min" : [0.00891413539648056, 0.3071823716163635], "name" : "TEXCOORD_0"}, {"bufferView" : 0, "byteOffset" : 4664, "componentType" : 5123, "count" : 1083, "type" : "SCALAR", "max" : [940], "min" : [0]}, {"bufferView" : 3, "byteOffset" : 0, "componentType" : 5126, "count" : 941, "type" : "VEC3", "max" : [51.78241729736328, 48.26698303222656, 7.401487395523008E-15], "min" : [-51.7824821472168, -50.13815689086914, -89.4744873046875], "name" : "POSITION"}, {"bufferView" : 3, "byteOffset" : 12, "componentType" : 5126, "count" : 941, "type" : "VEC3", "max" : [0.9999998211860657, 0.999999463558197, 1.0000044107437134], "min" : [-0.9999998211860657, -0.999985933303833, -1.0000044107437134], "name" : "NORMAL"}, {"bufferView" : 3, "byteOffset" : 24, "componentType" : 5126, "count" : 941, "type" : "VEC2", "max" : [0.30691638588905334, 0.9789580702781677], "min" : [0.008873308077454567, 0.09159094095230103], "name" : "TEXCOORD_0"}, {"bufferView" : 0, "byteOffset" : 6832, "componentType" : 5123, "count" : 2802, "type" : "SCALAR", "max" : [2419], "min" : [0]}, {"bufferView" : 4, "byteOffset" : 0, "componentType" : 5126, "count" : 2420, "type" : "VEC3", "max" : [63.27717208862305, 53.20911407470703, 1.4802974791046017E-14], "min" : [-63.277244567871094, -56.30423355102539, -161.91685485839844], "name" : "POSITION"}, {"bufferView" : 4, "byteOffset" : 12, "componentType" : 5126, "count" : 2420, "type" : "VEC3", "max" : [1.0000019073486328, 1.000003695487976, 1.0000044107437134], "min" : [-1.0000011920928955, -1.0000038146972656, -1.0000044107437134], "name" : "NORMAL"}, {"bufferView" : 4, "byteOffset" : 24, "componentType" : 5126, "count" : 2420, "type" : "VEC2", "max" : [0.30691638588905334, 0.9789580702781677], "min" : [0.008873308077454567, 0.09159094095230103], "name" : "TEXCOORD_0"}, {"bufferView" : 0, "byteOffset" : 12436, "componentType" : 5123, "count" : 414, "type" : "SCALAR", "max" : [359], "min" : [0]}, {"bufferView" : 5, "byteOffset" : 0, "componentType" : 5126, "count" : 360, "type" : "VEC3", "max" : [250.21514892578125, 250.0091552734375, 548.2708740234375], "min" : [-250, -250, 43.14716339111328], "name" : "POSITION"}, {"bufferView" : 5, "byteOffset" : 12, "componentType" : 5126, "count" : 360, "type" : "VEC3", "max" : [0.996724009513855, 0.9844310283660889, 0.9779068231582642], "min" : [-0.9852225184440613, -0.9984560012817383, -0.41774916648864746], "name" : "NORMAL"}, {"bufferView" : 5, "byteOffset" : 24, "componentType" : 5126, "count" : 360, "type" : "VEC2", "max" : [0.991740345954895, 0.9249242544174194], "min" : [0.988692045211792, 0.63628751039505], "name" : "TEXCOORD_0"}], "asset" : {"generator" : "Aspose.3D 22.1", "version" : "2.0"}, "buffers" : [{"uri" : "data:application/octet-stream;base64,", "byteLength" : 225448}], "bufferViews" : [{"buffer" : 0, "byteOffset" : 0, "byteLength" : 13264, "target" : 34963}, {"buffer" : 0, "byteOffset" : 13268, "byteLength" : 25344, "byteStride" : 32, "target" : 34962}, {"buffer" : 0, "byteOffset" : 38616, "byteLength" : 49248, "byteStride" : 32, "target" : 34962}, {"buffer" : 0, "byteOffset" : 87868, "byteLength" : 34656, "byteStride" : 32, "target" : 34962}, {"buffer" : 0, "byteOffset" : 122528, "byteLength" : 89664, "byteStride" : 32, "target" : 34962}, {"buffer" : 0, "byteOffset" : 212196, "byteLength" : 13248, "byteStride" : 32, "target" : 34962}], "images" : [{"uri" : "data:image/png;base64,"}], "materials" : [{"name" : "PolygonMinis_Fantasy_01.001", "pbrMetallicRoughness" : {"baseColorFactor" : [1, 1, 1, 1], "baseColorTexture" : {"index" : 0, "texCoord" : 0}, "metallicFactor" : 0, "roughnessFactor" : 0.5527864098548889}, "emissiveFactor" : [0, 0, 0], "alphaMode" : "OPAQUE", "doubleSided" : true}, {"name" : "PolygonMinis_Fantasy_01.001", "pbrMetallicRoughness" : {"baseColorFactor" : [1, 1, 1, 1], "baseColorTexture" : {"index" : 0, "texCoord" : 0}, "metallicFactor" : 0, "roughnessFactor" : 0.5527864098548889}, "emissiveFactor" : [0, 0, 0], "alphaMode" : "OPAQUE", "doubleSided" : true}, {"name" : "PolygonMinis_Fantasy_01.001", "pbrMetallicRoughness" : {"baseColorFactor" : [1, 1, 1, 1], "baseColorTexture" : {"index" : 0, "texCoord" : 0}, "metallicFactor" : 0, "roughnessFactor" : 0.5527864098548889}, "emissiveFactor" : [0, 0, 0], "alphaMode" : "OPAQUE", "doubleSided" : true}, {"name" : "PolygonMinis_Fantasy_01.001", "pbrMetallicRoughness" : {"baseColorFactor" : [1, 1, 1, 1], "baseColorTexture" : {"index" : 0, "texCoord" : 0}, "metallicFactor" : 0, "roughnessFactor" : 0.5527864098548889}, "emissiveFactor" : [0, 0, 0], "alphaMode" : "OPAQUE", "doubleSided" : true}, {"name" : "PolygonMinis_Fantasy_01.001", "pbrMetallicRoughness" : {"baseColorFactor" : [1, 1, 1, 1], "baseColorTexture" : {"index" : 0, "texCoord" : 0}, "metallicFactor" : 0, "roughnessFactor" : 0.5527864098548889}, "emissiveFactor" : [0, 0, 0], "alphaMode" : "OPAQUE", "doubleSided" : true}], "meshes" : [{"primitives" : [{"attributes" : {"POSITION" : 1, "NORMAL" : 2, "TEXCOORD_0" : 3}, "indices" : 0, "material" : 0, "mode" : 4}]}, {"primitives" : [{"attributes" : {"POSITION" : 5, "NORMAL" : 6, "TEXCOORD_0" : 7}, "indices" : 4, "material" : 1, "mode" : 4}]}, {"primitives" : [{"attributes" : {"POSITION" : 9, "NORMAL" : 10, "TEXCOORD_0" : 11}, "indices" : 8, "material" : 2, "mode" : 4}]}, {"primitives" : [{"attributes" : {"POSITION" : 13, "NORMAL" : 14, "TEXCOORD_0" : 15}, "indices" : 12, "material" : 3, "mode" : 4}]}, {"primitives" : [{"attributes" : {"POSITION" : 17, "NORMAL" : 18, "TEXCOORD_0" : 19}, "indices" : 16, "material" : 4, "mode" : 4}]}], "nodes" : [{"matrix" : [1, 0, 0, 0, 0, 1, 0, 0, 0, 0, 1, 0, -115.69976806640625, 63.700103759765625, -54.000091552734375, 1], "mesh" : 1, "name" : "SM_Bld_Knights_Church_01"}, {"matrix" : [1, 0, 0, 0, 0, 1, 0, 0, 0, 0, 1, 0, 0, 0, -47.899627685546875, 1], "mesh" : 2, "name" : "SM_Bld_Knights_House_01"}, {"matrix" : [1, 0, 0, 0, 0, 1, 0, 0, 0, 0, 1, 0, 38.09967041015625, -169.49996948242188, 0, 1], "mesh" : 3, "name" : "SM_Bld_Knights_House_03"}, {"matrix" : [1, 0, 0, 0, 0, 1, 0, 0, 0, 0, 1, 0, 1.1810302734375, 3.839111328125, -10.736846923828125, 1], "mesh" : 4, "name" : "SM_Tile_Cube_FloatingIsland_01"}, {"children" : [0, 1, 2, 3], "matrix" : [0.009999999776482582, 0, 0, 0, 0, -1.3435885348189617E-09, 0.009999999434197101, 0, 0, -0.009999999434197101, -1.3435885348189617E-09, 0, 0, 0, 0, 1], "mesh" : 0, "name" : "SM_Tile_Cube_Hill_02_2"}], "samplers" : [{"magFilter" : 9729, "minFilter" : 9987, "wrapS" : 10497, "wrapT" : 10497}], "scene" : 0, "scenes" : [{"nodes" : [4]}], "textures" : [{"sampler" : 0, "source" : 0}]}